<svg width="16" height="20" viewBox="0 0 16 20" fill="none" xmlns="http://www.w3.org/2000/svg">
<path d="M7.15 19.25C6.72222 19.25 6.32118 19.1583 5.94688 18.975C5.57257 18.7917 5.25556 18.5319 4.99583 18.1958L0 11.8479L0.435417 11.3896C0.740972 11.0688 1.10764 10.8778 1.53542 10.8167C1.96319 10.7556 2.36042 10.8396 2.72708 11.0688L4.42292 12.1V4.58333C4.42292 4.32361 4.51076 4.1059 4.68646 3.93021C4.86215 3.75451 5.07986 3.66667 5.33958 3.66667C5.59931 3.66667 5.82083 3.75451 6.00417 3.93021C6.1875 4.1059 6.27917 4.32361 6.27917 4.58333V15.4L4.05625 14.025L6.43958 17.0729C6.53125 17.1799 6.63819 17.2639 6.76042 17.325C6.88264 17.3861 7.0125 17.4167 7.15 17.4167H12.2146C12.7188 17.4167 13.1503 17.2372 13.5094 16.8781C13.8684 16.5191 14.0479 16.0875 14.0479 15.5833V11.9167C14.0479 11.6569 13.9601 11.4392 13.7844 11.2635C13.6087 11.0878 13.391 11 13.1313 11H8.1125V9.16667H13.1313C13.8951 9.16667 14.5444 9.43403 15.0792 9.96875C15.6139 10.5035 15.8813 11.1528 15.8813 11.9167V15.5833C15.8813 16.5917 15.5222 17.4549 14.8042 18.1729C14.0861 18.891 13.2229 19.25 12.2146 19.25H7.15ZM1.375 6.875C1.17639 6.53889 1.02361 6.17604 0.916667 5.78646C0.809722 5.39688 0.75625 4.99583 0.75625 4.58333C0.75625 3.31528 1.20312 2.23438 2.09687 1.34063C2.99062 0.446875 4.07153 0 5.33958 0C6.60764 0 7.68854 0.446875 8.58229 1.34063C9.47604 2.23438 9.92292 3.31528 9.92292 4.58333C9.92292 4.99583 9.86944 5.39688 9.7625 5.78646C9.65556 6.17604 9.50278 6.53889 9.30417 6.875L7.72292 5.95833C7.84514 5.74444 7.93681 5.52674 7.99792 5.30521C8.05903 5.08368 8.08958 4.84306 8.08958 4.58333C8.08958 3.81944 7.82222 3.17014 7.2875 2.63542C6.75278 2.10069 6.10347 1.83333 5.33958 1.83333C4.57569 1.83333 3.92639 2.10069 3.39167 2.63542C2.85694 3.17014 2.58958 3.81944 2.58958 4.58333C2.58958 4.84306 2.62014 5.08368 2.68125 5.30521C2.74236 5.52674 2.83403 5.74444 2.95625 5.95833L1.375 6.875Z" fill="#004E9F"/>
</svg>
